<?xml version="1.0" standalone="no"?>
<!DOCTYPE svg PUBLIC "-//W3C//DTD SVG 20010904//EN"
 "http://www.w3.org/TR/2001/REC-SVG-20010904/DTD/svg10.dtd">
<svg version="1.0" xmlns="http://www.w3.org/2000/svg"
 width="375.000000pt" height="666.000000pt" viewBox="0 0 375.000000 666.000000"
 preserveAspectRatio="xMidYMid meet">

<g transform="translate(0.000000,666.000000) scale(0.100000,-0.100000)"
fill="#000000" stroke="none">
<path d="M1769 5620 c-89 -8 -123 -22 -168 -67 -15 -16 -29 -22 -40 -18 -9 4
-43 9 -76 12 -52 5 -68 2 -112 -20 -28 -15 -61 -39 -72 -54 -54 -70 -66 -82
-95 -87 -17 -3 -53 -22 -80 -41 -27 -19 -60 -35 -74 -35 -15 0 -45 -19 -79
-50 -30 -27 -61 -50 -68 -50 -19 0 -115 -100 -131 -136 -7 -17 -20 -36 -28
-44 -10 -7 -16 -28 -16 -51 0 -22 -4 -39 -9 -39 -5 0 -11 -17 -15 -39 -4 -30
-23 -58 -82 -122 -87 -97 -168 -214 -159 -229 4 -6 2 -16 -3 -23 -15 -19 -24
-67 -12 -67 12 0 1 -93 -12 -98 -17 -7 -8 -71 13 -85 19 -14 20 -17 5 -45 -10
-20 -12 -33 -6 -37 6 -3 10 -19 10 -36 0 -18 5 -29 14 -29 10 0 15 -27 21
-112 7 -119 19 -162 58 -208 49 -58 59 -120 20 -120 -58 0 -106 -88 -106 -195
0 -62 5 -82 45 -170 25 -55 71 -180 102 -278 34 -106 67 -188 81 -205 13 -16
51 -43 84 -61 34 -18 65 -40 71 -50 5 -10 28 -85 50 -167 44 -160 93 -284 148
-377 35 -58 35 -59 29 -146 -9 -128 -13 -135 -94 -161 -80 -27 -175 -72 -221
-107 -42 -31 -77 -46 -192 -78 -52 -15 -135 -44 -185 -65 -49 -21 -142 -50
-205 -64 -63 -15 -121 -31 -129 -35 -10 -6 -1 -21 37 -60 27 -29 54 -69 60
-90 12 -37 92 -119 142 -144 13 -7 27 -25 32 -42 11 -43 159 -175 196 -175 11
0 38 -16 59 -36 21 -20 57 -47 80 -61 23 -13 54 -41 69 -61 30 -39 56 -64 150
-147 111 -98 147 -142 139 -172 -4 -16 0 -23 14 -28 11 -3 23 -14 26 -24 6
-19 43 -57 73 -75 10 -6 43 -27 73 -46 51 -33 53 -35 27 -38 -34 -4 -37 -22
-5 -22 13 0 34 -9 47 -20 35 -30 96 -46 115 -30 9 7 15 8 15 2 0 -9 51 -32 71
-32 13 0 11 28 -3 32 -6 2 -8 10 -4 16 4 7 31 12 66 12 54 0 62 3 94 35 20 19
42 35 51 35 8 0 15 7 15 15 0 8 5 15 11 15 7 0 26 16 45 35 18 19 39 35 47 35
22 0 26 10 17 36 -9 22 -4 28 41 60 27 20 56 49 64 64 8 15 25 38 39 51 14 13
26 29 26 35 0 15 75 120 127 179 25 28 96 120 159 205 96 131 118 167 140 234
14 44 33 94 42 111 9 16 17 44 18 60 3 42 24 178 28 182 2 2 6 -23 10 -56 4
-33 12 -63 18 -67 7 -4 8 6 4 32 -3 22 -8 65 -12 96 l-6 58 76 117 c94 144
233 376 252 420 8 18 32 70 55 115 81 167 124 289 75 213 -9 -14 -22 -25 -29
-25 -7 0 -21 -16 -31 -35 -17 -32 -36 -46 -36 -27 0 13 39 72 48 72 4 0 9 23
9 50 0 33 7 58 18 70 9 10 14 24 10 29 -3 6 -1 11 4 11 6 0 11 5 11 10 0 22
-30 8 -36 -17 -4 -15 -18 -37 -31 -49 -12 -12 -23 -28 -23 -37 0 -9 -12 -18
-29 -22 -16 -3 -32 -13 -35 -21 -7 -19 -66 -19 -66 1 0 8 -9 19 -19 25 -26 13
-31 13 -31 -4 0 -12 -9 -11 -49 4 -55 20 -85 12 -58 -15 13 -12 15 -21 7 -36
-9 -16 -7 -21 13 -30 l23 -11 -23 -46 c-13 -26 -33 -56 -45 -67 -11 -11 -18
-14 -14 -7 10 17 -28 16 -46 -1 -7 -7 -21 -16 -30 -20 -10 -3 -18 -10 -18 -15
0 -10 -43 -8 -61 3 -6 4 -33 7 -60 6 l-49 -1 30 41 c16 23 32 58 36 78 3 20
13 47 21 59 18 29 13 34 -45 48 -26 5 -46 15 -45 21 1 5 -10 16 -25 23 -15 7
-34 16 -42 20 -9 4 -42 3 -74 -2 -65 -11 -133 2 -143 28 -3 8 -11 14 -18 14
-8 0 -23 12 -35 28 -12 15 -25 27 -28 27 -17 1 -30 18 -36 47 -6 35 -46 88
-65 88 -6 0 -11 -4 -11 -8 0 -10 -66 -37 -77 -31 -4 2 -7 11 -5 19 2 8 5 35 8
59 6 54 89 268 115 297 10 11 19 25 19 31 0 9 19 47 69 138 36 63 67 82 73 43
4 -24 6 -25 50 -14 24 5 28 3 34 -21 10 -41 53 -92 90 -108 18 -7 35 -23 39
-37 10 -30 39 -58 63 -58 20 0 111 -64 142 -100 10 -12 23 -19 29 -16 5 4 21
1 35 -6 21 -9 37 -8 87 8 34 10 64 25 66 32 3 6 15 12 27 12 12 0 48 19 80 43
48 35 61 51 75 92 13 40 24 54 53 70 21 11 38 25 38 32 0 7 8 17 18 22 13 7
22 37 36 130 10 67 22 118 27 115 5 -3 9 -15 9 -27 0 -12 9 -36 19 -53 13 -21
22 -67 30 -147 6 -64 14 -131 18 -148 10 -53 21 -8 22 89 1 54 5 82 12 82 16
0 68 -56 79 -84 7 -18 14 -23 29 -19 12 3 19 9 16 13 -3 4 1 13 9 19 17 14 13
133 -7 201 -11 37 -17 45 -37 45 -18 0 -33 -12 -55 -45 -26 -39 -30 -42 -33
-23 -3 22 7 51 54 149 38 81 64 173 64 230 0 29 5 56 12 60 7 5 8 2 3 -7 -6
-10 -5 -11 3 -4 8 8 9 31 3 80 -9 71 0 105 19 75 6 -8 8 -20 6 -26 -2 -6 0
-17 6 -25 6 -9 7 7 3 51 -4 36 -9 99 -11 140 -7 141 -13 192 -23 204 -6 7 -8
15 -5 18 12 12 -37 87 -70 107 -39 24 -64 62 -91 134 -10 26 -23 47 -29 47 -6
0 -5 4 3 9 12 8 12 12 -2 26 -10 9 -18 33 -19 53 -2 59 -3 62 -14 70 -6 4 -15
18 -19 32 -4 14 -18 39 -31 57 -13 17 -24 39 -24 47 0 22 -26 20 -35 -1 -5
-15 -11 -12 -40 21 -18 22 -36 51 -40 65 -3 14 -20 54 -37 89 -24 48 -37 62
-54 62 -12 0 -35 15 -52 34 -21 25 -41 36 -73 41 -24 4 -61 16 -81 26 -23 12
-47 17 -65 13 -24 -5 -31 -1 -41 20 -13 29 -28 32 -55 11 -26 -19 -41 -11
-120 57 -37 33 -73 58 -80 55 -6 -2 -22 4 -34 15 -19 18 -26 19 -57 8 -27 -8
-53 -9 -99 -1 -110 18 -131 19 -218 11z m746 -210 c3 -5 -1 -10 -9 -10 -9 0
-16 5 -16 10 0 6 4 10 9 10 6 0 13 -4 16 -10z m56 -1432 c8 -14 6 -18 -6 -18
-18 0 -85 48 -85 60 0 15 81 -23 91 -42z m-133 -26 c3 -19 -1 -22 -27 -22 -34
0 -36 2 -20 31 13 26 43 20 47 -9z m267 -372 c7 -12 -2 -12 -30 0 -19 8 -19 9
2 9 12 1 25 -3 28 -9z m-15 -34 c8 -3 22 -5 31 -5 23 -1 31 -26 10 -29 -9 -2
-50 -5 -92 -8 -62 -5 -79 -2 -93 11 -39 39 -4 57 84 42 25 -4 52 -9 60 -11z
m-317 -230 c38 -13 74 -29 80 -35 16 -16 -3 -14 -37 4 -16 9 -37 15 -45 13
-30 -4 -81 14 -81 28 0 18 2 18 83 -10z m337 4 c-8 -5 -19 -10 -25 -10 -5 0
-3 5 5 10 8 5 20 10 25 10 6 0 3 -5 -5 -10z m-53 -26 c-3 -3 -12 -4 -19 -1 -8
3 -5 6 6 6 11 1 17 -2 13 -5z m-62 -15 c-18 -5 -33 -5 -39 1 -7 7 4 10 30 9
39 -1 39 -1 9 -10z m-1556 -138 c17 -22 33 -30 69 -35 33 -4 51 -13 61 -27 9
-16 15 -18 21 -10 5 9 11 8 24 -4 10 -10 24 -14 36 -10 25 8 26 -3 3 -22 -17
-13 -16 -14 4 -10 12 3 30 -1 40 -9 24 -18 43 -18 43 1 0 8 5 15 10 15 6 0 10
-7 10 -16 0 -19 14 -33 58 -57 24 -14 32 -15 32 -5 0 9 3 9 10 -2 9 -13 11
-13 19 0 15 22 24 5 11 -20 -16 -30 4 -52 23 -26 11 14 20 16 52 10 22 -5 43
-7 47 -6 4 1 8 -28 7 -66 0 -37 0 -92 0 -122 0 -30 -5 -64 -12 -75 -8 -11 -30
-66 -51 -123 l-39 -102 -36 6 c-20 4 -51 13 -70 20 -18 8 -41 14 -51 14 -18 0
-90 72 -90 90 0 6 -9 10 -21 10 -18 0 -20 4 -15 25 5 19 2 25 -11 27 -10 0
-24 2 -31 2 -19 2 -53 59 -46 79 3 9 1 17 -5 17 -6 0 -11 -6 -12 -12 0 -7 -4
-4 -9 7 l-9 20 -1 -20 c-1 -19 -2 -18 -10 3 -5 12 -14 22 -20 22 -6 0 -9 4 -5
9 3 5 1 12 -5 16 -5 3 -10 17 -10 31 0 14 -6 24 -14 24 -8 0 -17 14 -21 30 -4
17 -15 36 -25 42 -10 6 -16 17 -13 24 7 18 -16 56 -29 48 -7 -5 -9 -1 -5 9 4
11 1 17 -8 17 -16 0 -19 17 -17 88 0 32 8 50 29 72 35 38 54 38 82 1z m261
-70 c0 -5 -13 -8 -30 -7 -35 1 -40 13 -7 18 25 4 37 1 37 -11z m442 -316 c-4
-37 -25 -47 -36 -17 -3 9 -9 22 -12 29 -3 6 5 13 18 16 13 2 25 5 28 6 4 0 4
-15 2 -34z m443 -365 c-3 -5 3 -10 14 -10 12 0 21 -4 21 -9 0 -15 40 -24 54
-12 18 15 76 9 76 -8 0 -7 -6 -11 -15 -7 -8 3 -18 -1 -22 -8 -5 -8 -37 -15
-85 -19 -42 -3 -85 -10 -96 -16 -24 -13 -118 -13 -147 -1 -23 9 -24 8 70 40
37 13 61 17 63 10 5 -15 41 -12 58 5 13 13 13 15 1 15 -8 0 -20 7 -27 15 -11
13 -8 15 14 15 16 0 25 -4 21 -10z m625 -49 c0 -14 -18 -23 -30 -16 -6 4 -8
11 -5 16 8 12 35 12 35 0z m-593 -255 c-6 -18 -57 -20 -57 -2 0 8 6 16 13 19
19 6 48 -4 44 -17z m63 14 c0 -5 -2 -10 -4 -10 -3 0 -8 5 -11 10 -3 6 -1 10 4
10 6 0 11 -4 11 -10z m136 -266 c-5 -13 0 -16 29 -12 19 2 35 0 35 -4 0 -4 -4
-8 -10 -8 -5 0 -10 -6 -10 -13 0 -13 -40 -37 -61 -37 -17 0 -51 -38 -44 -49 3
-6 -1 -11 -10 -11 -9 0 -33 -13 -53 -30 -21 -16 -53 -33 -72 -36 -19 -4 -40
-10 -45 -15 -30 -23 -205 -8 -205 17 0 8 -14 20 -31 26 -16 6 -27 13 -24 16
15 15 333 92 351 85 8 -3 27 1 42 8 37 19 96 59 88 59 -4 0 -4 5 -1 10 10 16
28 11 21 -6z"/>
<path d="M2870 5156 c0 -2 7 -7 16 -10 8 -3 12 -2 9 4 -6 10 -25 14 -25 6z"/>
<path d="M2670 2720 c0 -5 5 -10 10 -10 6 0 10 5 10 10 0 6 -4 10 -10 10 -5 0
-10 -4 -10 -10z"/>
<path d="M2491 1263 c-7 -21 -17 -56 -23 -78 -5 -22 -14 -53 -19 -69 -12 -38
-11 -59 0 -51 17 10 68 221 57 232 -2 3 -9 -13 -15 -34z"/>
<path d="M3617 1101 c-22 -53 -49 -218 -45 -267 2 -30 6 -19 16 51 7 50 22
126 33 169 21 89 20 107 -4 47z"/>
<path d="M3516 478 c-3 -13 -6 -33 -6 -45 0 -13 -13 -62 -29 -110 -27 -82 -41
-138 -61 -255 -5 -27 -12 -52 -15 -58 -4 -6 13 -10 43 -10 l49 0 7 118 c4 64
9 160 12 212 2 52 7 112 9 133 6 41 1 49 -9 15z"/>
<path d="M709 288 c-1 -18 0 -37 2 -43 1 -5 3 -32 4 -60 1 -27 10 -69 20 -92
10 -25 15 -53 11 -68 -6 -22 -3 -25 20 -25 24 0 26 3 20 27 -3 16 -10 49 -16
76 -5 26 -14 55 -18 65 -5 9 -10 36 -10 59 -2 41 -17 93 -27 93 -3 0 -6 -15
-6 -32z"/>
<path d="M3736 103 c-9 -57 -7 -103 4 -103 6 0 10 30 10 70 0 39 -2 70 -4 70
-2 0 -6 -17 -10 -37z"/>
</g>
</svg>
